<svg width="124" height="48" viewBox="0 0 124 48" fill="none" xmlns="http://www.w3.org/2000/svg">
<g clip-path="url(#clip0_2309_1450)">
<g clip-path="url(#clip1_2309_1450)">
<mask id="mask0_2309_1450" style="mask-type:luminance" maskUnits="userSpaceOnUse" x="20" y="11" width="84" height="26">
<path d="M103.298 11H20.4229V37H103.298V11Z" fill="white"/>
</mask>
<g mask="url(#mask0_2309_1450)">
<path d="M31.3792 25.3306V26.4088H23.9958V30.3566H30.3269V31.4349H23.9958V36.8088H22.5928V25.3306H31.3792Z" fill="white"/>
<path d="M31.6241 33.452V27.9912H32.957V33.2086C32.957 35.0173 34.0618 35.9042 35.6052 35.9042C37.1485 35.9042 38.3586 34.9129 38.3586 33.0346V27.9912H39.709V36.8085H38.3762V35.5738H38.2008C37.5869 36.4782 36.5347 36.9825 35.2895 36.9825C33.1499 36.9825 31.6241 35.8695 31.6241 33.452Z" fill="white"/>
<path d="M45.4654 27.7998C47.6051 27.7998 49.1309 28.9128 49.1309 31.3303V36.8085H47.798V31.5737C47.798 29.7651 46.6756 28.8781 45.1498 28.8781C43.624 28.8781 42.3963 29.852 42.3963 31.7477V36.8085H41.0459V27.9911H42.3788V29.2085H42.5542C43.168 28.3042 44.2027 27.7998 45.4654 27.7998Z" fill="white"/>
<path d="M54.45 27.8175C55.9582 27.8175 57.1333 28.4088 57.7822 29.4697H57.9927V25.3306H59.3256V36.8088H57.9927V35.4001H57.7822C57.0983 36.4261 55.9408 37.0001 54.45 37.0001C51.679 37.0001 50.1884 35.1566 50.1884 32.4436C50.1884 29.7305 51.679 27.8175 54.45 27.8175ZM54.8008 28.861C52.8014 28.861 51.5387 30.0436 51.5387 32.4436C51.5387 34.8436 52.8014 35.974 54.8008 35.974C56.6247 35.974 57.9927 34.6349 57.9927 32.461C57.9927 30.2871 56.6247 28.861 54.8008 28.861Z" fill="white"/>
<path d="M60.419 32.4261C60.419 29.7478 61.9272 27.8174 64.9438 27.8174C67.6796 27.8174 69.2054 29.4522 69.2054 32.0609C69.2054 32.2696 69.1879 32.4261 69.1704 32.5826H61.7519C61.8045 34.913 62.962 36.0261 64.9964 36.0261C66.7677 36.0261 67.6621 35.1913 67.9252 33.9566H69.2054C68.9424 35.5044 67.7498 36.9826 64.9438 36.9826C61.8396 36.9826 60.419 35 60.419 32.4261ZM67.8726 31.7131C67.82 29.6087 66.6274 28.7566 64.9613 28.7566C63.1023 28.7566 61.9799 29.7304 61.7694 31.7131H67.8726Z" fill="white"/>
<path d="M74.379 27.8175C75.8872 27.8175 77.0622 28.4088 77.7112 29.4697H77.9216V25.3306H79.2544V36.8088H77.9216V35.4001H77.7112C77.0271 36.4261 75.8696 37.0001 74.379 37.0001C71.608 37.0001 70.1172 35.1566 70.1172 32.4436C70.1172 29.7305 71.608 27.8175 74.379 27.8175ZM74.7297 28.861C72.7304 28.861 71.4677 30.0436 71.4677 32.4436C71.4677 34.8436 72.7304 35.974 74.7297 35.974C76.5536 35.974 77.9216 34.6349 77.9216 32.461C77.9216 30.2871 76.5536 28.861 74.7297 28.861Z" fill="white"/>
<path d="M38.5713 13.7935H40.8599V18.9391C40.8599 20.4587 41.7061 21.2435 43.039 21.2435C44.5166 21.2435 45.4724 20.3326 45.4724 18.4913V13.7935H47.7786V22.8522H45.4899V21.5478H45.2554C44.624 22.4761 43.598 23.0304 42.2104 23.0304C39.9042 23.0304 38.5713 21.7434 38.5713 19.3152V13.7935Z" fill="white"/>
<path d="M48.7043 18.3129C48.7043 15.6499 50.2718 13.5781 53.6237 13.5781C56.9757 13.5781 58.3261 15.5803 58.3261 18.152C58.3261 18.402 58.3261 18.6173 58.291 18.7955H50.9755C51.0829 20.7064 52.0563 21.5108 53.6786 21.5108C55.0838 21.5108 55.8226 20.8847 56.0922 19.9912H58.3085C58.0389 21.5455 56.7587 23.0281 53.6237 23.0281C50.1293 23.0281 48.7043 20.8477 48.7043 18.3107V18.3129ZM56.1273 17.4564C56.0374 15.902 55.1363 15.0803 53.6588 15.0803C52.1813 15.0803 51.2079 15.8846 50.9931 17.4564H56.1273Z" fill="white"/>
<path d="M59.3008 11.0586H61.607V15.0608H61.8416C62.508 14.1325 63.6063 13.6325 65.0664 13.6325C68.039 13.6325 69.4091 15.6869 69.4091 18.3673C69.4091 21.0478 68.039 23.1021 65.0664 23.1021C63.6063 23.1021 62.5255 22.5847 61.8416 21.6912H61.607V22.8521H59.3008V11.0586ZM64.3473 21.3694C66.1668 21.3694 67.1051 20.3151 67.1051 18.3847C67.1051 16.4542 66.169 15.3477 64.3473 15.3477C62.5255 15.3477 61.6092 16.526 61.6092 18.3847C61.6092 20.2434 62.5826 21.3694 64.3473 21.3694Z" fill="white"/>
<path d="M70.1191 18.3129C70.1191 15.6499 71.6866 13.5781 75.0385 13.5781C78.3905 13.5781 79.7408 15.5803 79.7408 18.152C79.7408 18.402 79.7408 18.6173 79.7058 18.7955H72.3903C72.4977 20.7064 73.4711 21.5108 75.0933 21.5108C76.4986 21.5108 77.2374 20.8847 77.507 19.9912H79.7233C79.4537 21.5455 78.1735 23.0281 75.0385 23.0281C71.5441 23.0281 70.1191 20.8477 70.1191 18.3107V18.3129ZM77.5421 17.4564C77.4522 15.902 76.5511 15.0803 75.0736 15.0803C73.5961 15.0803 72.6227 15.8846 72.4079 17.4564H77.5421Z" fill="white"/>
<path d="M86.0125 13.7217H86.5167V15.8304H85.7428C84.0482 15.8304 83.0223 16.8304 83.0223 18.9043V22.8521H80.7161V13.7934H82.95V15.2043H83.1845C83.726 14.2565 84.6621 13.7217 86.0125 13.7217Z" fill="white"/>
<path d="M92.9618 15.8304H92.1879C90.4933 15.8304 89.4674 16.8304 89.4674 18.9043V22.8521H87.1612V13.7934H89.3951V15.2043H89.6296C90.1711 14.2565 91.0962 13.7217 91.9994 13.7217" fill="white"/>
<path d="M36.4802 21.0762H38.0126V22.8263H36.9494C34.8405 22.8263 34.1565 21.9328 34.1565 20.235V11.0176H36.4802V21.0762Z" fill="white"/>
<path d="M31.0092 16.8065V16.5739C32.1798 16.2174 32.9361 15.4848 32.9361 13.9652C32.9361 12.3043 31.9627 11 29.2794 11H22.5953V15.95H20.4229L22.5953 17.5391V22.8457H29.2444C31.8575 22.8457 33.1531 21.6674 33.1531 19.6478C33.1531 17.8978 32.217 17.1109 31.0092 16.8065ZM24.9366 12.7152H28.5933C29.9985 12.7152 30.4501 13.2326 30.4501 14.3761C30.4501 15.3587 30.0007 15.9478 28.5582 15.9478H24.9366V13.6935L23.5972 12.713H24.9366V12.7152ZM28.6831 21.1304H24.9366V18.5196L23.5972 17.5391H28.5933C30.1607 17.5391 30.6825 18.2174 30.6825 19.3435C30.6825 20.4695 30.1783 21.1304 28.6831 21.1304Z" fill="white"/>
<path d="M100.958 13.7935L97.948 20.7261L95.1003 13.7935H92.7041L96.7575 22.6913L96.056 24.2108C96.056 24.2108 95.8916 24.6304 95.5167 24.6304H94.1554V26.3804H95.2187C96.4179 26.3804 97.1543 26.0913 97.5687 25.5282C97.6761 25.3956 97.7725 25.2456 97.858 25.0696L103.297 13.7935H100.956H100.958Z" fill="white"/>
</g>
</g>
</g>
<defs>
<clipPath id="clip0_2309_1450">
<rect width="124" height="48" fill="white"/>
</clipPath>
<clipPath id="clip1_2309_1450">
<rect width="124" height="48" fill="white"/>
</clipPath>
</defs>
</svg>
